<?xml version="1.0" encoding="utf-8"?>
<!-- Generator: Adobe Illustrator 19.0.0, SVG Export Plug-In . SVG Version: 6.00 Build 0)  -->
<svg version="1.1" id="Layer_2" xmlns="http://www.w3.org/2000/svg" xmlns:xlink="http://www.w3.org/1999/xlink" x="0px" y="0px"
	 width="100px" height="100px" viewBox="-247 370.9 100 100" style="enable-background:new -247 370.9 100 100;"
	 xml:space="preserve">
<g>
	<path d="M-163.8,451.2h-62.6l7.7-7.6c1-1,1-2.6,0-3.5c-1-1-2.6-1-3.5,0l-12.9,13c-0.4,0.4-0.4,1,0,1.4l12.9,13c1,1,2.6,1,3.5,0
		c1-1,1-2.6,0-3.5l-7.7-7.6h62.6c1.4,0,2.5-1.1,2.5-2.5C-161.3,452.3-162.4,451.2-163.8,451.2z"/>
	<path d="M-161.1,373.9h-43.2v0c-12,0.2-21.7,10-21.7,22c0,11.3,8.6,20.7,19.5,21.9v22.7c0,1.4,1.1,2.5,2.5,2.5s2.5-1.1,2.5-2.5
		v-61.7h15v61.7c0,1.4,1.1,2.5,2.5,2.5s2.5-1.1,2.5-2.5v-61.7h20.3c1.4,0,2.5-1.1,2.5-2.5S-159.8,373.9-161.1,373.9z M-206.5,412.8
		c-8.2-1.2-14.5-8.3-14.5-16.8s6.3-15.6,14.5-16.8V412.8z"/>
</g>
</svg>
